<svg viewBox="0 0 100 20" xmlns="http://www.w3.org/2000/svg">
  <path d="M48.932 18.573H20.124L34.528 3.055z" fill="#63729e"/>
  <path d="M34.528 3.055l14.404 15.518H34.527V3.055" fill="#54617a"/>
  <path d="M34.528 3.055l4.792 5.163h-9.585z" fill="#fff"/>
  <path d="M39.32 8.218h-4.792V3.055" fill="#f8f8f8"/>
  <path d="M61.166 18.573H37.224l11.97-12.664zM95.562 18.573H71.748l11.907-13.08z" fill="#63729e"/>
  <path d="M83.655 5.493l11.907 13.08H83.655V5.493" fill="#54617a"/>
  <path d="M83.655 5.493l3.962 4.352h-7.924z" fill="#fff"/>
  <path d="M87.617 9.845h-3.962V5.493" fill="#f8f8f8"/>
  <path d="M81.4 18.573H62.905l9.248-9.345z" fill="#63729e"/>
  <path d="M72.153 9.228l9.247 9.345h-9.247V9.228" fill="#54617a"/>
  <path d="M72.153 9.228l3.076 3.11h-6.153z" fill="#fff"/>
  <path d="M75.23 12.337h-3.077v-3.11" fill="#f8f8f8"/>
  <path d="M23.698 18.573H3.905l9.897-10.435z" fill="#63729e"/>
  <path d="M13.802 8.139l9.896 10.434h-9.896V8.139" fill="#54617a"/>
  <path d="M13.802 8.139l3.293 3.471h-6.586z" fill="#fff"/>
  <path d="M17.095 11.61h-3.293V8.14" fill="#f8f8f8"/>
  <path d="M72.654 18.575H50.358L61.507 7.31z" fill="#63729e"/>
  <path d="M49.195 5.908l11.97 12.665h-11.97V5.908M61.507 7.31l11.147 11.265H61.507V7.31" fill="#54617a"/>
  <path d="M49.195 5.908l3.983 4.214H45.21zM61.507 7.31l3.708 3.749h-7.418z" fill="#fff"/>
  <path d="M53.178 10.122h-3.983V5.909M65.216 11.059h-3.71V7.31" fill="#f8f8f8"/>
</svg>
