<svg viewBox="0 0 100 20" xmlns="http://www.w3.org/2000/svg">
  <path d="M0 15.268h100v4.743H0z" fill="#add628"/>
  <path d="M54.118 7.65c6.61.027 10.214 7.487 15.798 7.736H37.008c5.584-.665 10.5-7.764 17.11-7.737z" fill="#add628"/>
  <path d="M54.118 7.65c6.61.027 10.214 7.487 15.798 7.736H53.474V7.677c.19-.028.406-.028.644-.028z" fill="#82a315"/>
  <path d="M73.863 9.244c6.362.023 9.83 6.201 15.204 6.407h-31.67c5.374-.55 10.105-6.43 16.466-6.407z" fill="#add628"/>
  <path d="M73.863 9.244c6.362.023 9.83 6.201 15.204 6.407H73.244V9.267c.183-.023.413-.023.62-.023z" fill="#82a315"/>
  <path d="M4.14 14.109h.353v1.302H4.14z" fill="#402e26"/>
  <path d="M4.325 14.109h.184v1.302h-.183z" fill="#2e211b"/>
  <path d="M5.867 14.35h-3.1l1.559-3.208z" fill="#bee735"/>
  <path d="M4.325 14.35v-3.208l1.542 3.207z" fill="#9abe2a"/>
  <path d="M5.817 12.96H2.834l1.492-1.955z" fill="#bee735"/>
  <path d="M4.325 12.96v-1.956l1.492 1.955z" fill="#9abe2a"/>
  <path d="M5.415 11.776H3.219l1.106-1.44z" fill="#bee735"/>
  <path d="M4.325 11.776v-1.439l1.09 1.44z" fill="#9abe2a"/>
  <path d="M17.78 10.507c6.015.02 9.3 4.993 14.398 5.168H2.183c5.099-.448 9.555-5.187 15.594-5.168z" fill="#add628"/>
  <path d="M17.78 10.507c6.015.02 9.3 4.993 14.398 5.168H17.182v-5.147c.183 0 .39-.02.596-.02z" fill="#82a315"/>
  <path d="M23.39 14.154h.32v1.216h-.32z" fill="#402e26"/>
  <path d="M23.55 14.154h.16v1.216h-.16z" fill="#2e211b"/>
  <path d="M24.975 14.392h-2.848l1.424-2.98z" fill="#bee735"/>
  <path d="M23.55 14.392v-2.98l1.425 2.98z" fill="#9abe2a"/>
  <path d="M24.905 13.105h-2.732l1.378-1.835z" fill="#bee735"/>
  <path d="M23.55 13.105V11.27l1.355 1.835z" fill="#9abe2a"/>
  <path d="M24.537 12.008H22.54l1.01-1.335z" fill="#bee735"/>
  <path d="M23.55 12.008v-1.335l.987 1.335z" fill="#9abe2a"/>
  <path d="M37.218 9.678c6.017.024 9.301 5.88 14.4 6.086h-29.97c5.098-.528 9.552-6.108 15.57-6.086z" fill="#add628"/>
  <path d="M37.218 9.678c6.017.024 9.301 5.88 14.4 6.086H36.62V9.702c.206 0 .413-.024.597-.024z" fill="#82a315"/>
  <path d="M77.04 14.722h.3v2.245h-.3z" fill="#402e26"/>
  <path d="M77.19 14.722h.15v2.245h-.15z" fill="#2e211b"/>
  <path d="M77.19 15.187c.65 0 1.166-.768 1.166-1.718s-.534-1.719-1.166-1.719c-.649 0-1.165.769-1.165 1.719 0 .95.516 1.718 1.165 1.718z" fill="#bee735"/>
  <path d="M77.19 11.75c.65 0 1.166.769 1.166 1.719 0 .95-.516 1.718-1.166 1.718V11.75z" fill="#9abe2a"/>
  <path d="M84.354 12.332h.344v1.9h-.344z" fill="#402e26"/>
  <path d="M84.526 12.332h.173v1.9h-.173z" fill="#2e211b"/>
  <path d="M84.526 12.727c.746 0 1.338-.65 1.338-1.455 0-.803-.612-1.454-1.337-1.454-.745 0-1.338.65-1.338 1.454 0 .804.592 1.453 1.338 1.453z" fill="#bee735"/>
  <path d="M84.526 9.818c.746 0 1.338.65 1.338 1.454 0 .804-.592 1.453-1.337 1.453V9.818z" fill="#9abe2a"/>
  <path d="M88.759 11.739c3.836.025 5.902 4.74 9.14 4.892H78.838c3.262-.406 6.109-4.918 9.921-4.892z" fill="#add628"/>
  <path d="M88.759 11.739c3.836.025 5.902 4.74 9.14 4.892h-9.507v-4.893h.367z" fill="#82a315"/>
  <path d="M96.311 16.737h.352v1.382h-.352z" fill="#402e26"/>
  <path d="M96.496 16.737h.183v1.382h-.183z" fill="#2e211b"/>
  <path d="M96.496 13.592l1.56 3.418h-3.12z" fill="#bee735"/>
  <path d="M98.055 17.01h-1.56v-3.418z" fill="#9abe2a"/>
  <path d="M96.496 13.428l1.51 2.09h-3.004z" fill="#bee735"/>
  <path d="M98.005 15.52h-1.51v-2.092z" fill="#9abe2a"/>
  <path d="M96.496 12.737l1.107 1.528h-2.198z" fill="#bee735"/>
  <path d="M97.603 14.265h-1.107v-1.528z" fill="#9abe2a"/>
  <path d="M51.618 15.764h.597v2.18h-.597z" fill="#402e26"/>
  <path d="M51.917 15.764h.298v2.18h-.298z" fill="#2e211b"/>
  <path d="M54.581 16.176h-5.328l2.664-5.374z" fill="#bee735"/>
  <path d="M51.917 16.176v-5.374l2.664 5.374z" fill="#9abe2a"/>
  <path d="M54.466 13.834h-5.121l2.572-3.284z" fill="#bee735"/>
  <path d="M51.917 13.834V10.55l2.549 3.284z" fill="#9abe2a"/>
  <path d="M53.777 11.86h-3.742l1.883-2.412z" fill="#bee735"/>
  <path d="M51.917 11.86V9.447l1.86 2.411z" fill="#9abe2a"/>
  <path d="M65.252 16.515h.464v1.653h-.464z" fill="#402e26"/>
  <path d="M65.484 16.515h.232v1.653h-.232z" fill="#2e211b"/>
  <path d="M63.471 16.825l2.012-4.028 2.014 4.028z" fill="#bee735"/>
  <path d="M65.484 12.798l2.013 4.027h-2.014z" fill="#9abe2a"/>
  <path d="M63.549 15.07l1.934-2.48 1.937 2.48z" fill="#bee735"/>
  <path d="M65.484 12.59l1.935 2.48h-1.935z" fill="#9abe2a"/>
  <path d="M64.064 13.573l1.42-1.809 1.42 1.808z" fill="#bee735"/>
  <path d="M65.484 11.764l1.42 1.808h-1.42z" fill="#9abe2a"/>
  <path d="M1.956 16.366s.018-.374.055-.374c.037-.02.218-.227.218-.227l.11-.62.718-.498.163.476.047.435.173.165.208.725-1.692-.081z" fill="#ab7130"/>
  <path d="M3.213 15.103l.045.435.173.165.209.725-.846-.041v-1.574l.255-.186z" fill="#936126"/>
  <path d="M10.959 15.31h.482v2.31h-.482z" fill="#402e26"/>
  <path d="M11.208 15.31h.234v2.31h-.234z" fill="#2e211b"/>
  <path d="M11.208 16.024c.762 0 1.4-1.172 1.4-2.602s-.622-2.604-1.4-2.604c-.78 0-1.401 1.173-1.401 2.604 0 1.429.622 2.602 1.4 2.602z" fill="#bee735"/>
  <path d="M11.208 10.818c.778 0 1.4 1.173 1.4 2.604 0 1.429-.622 2.602-1.4 2.602v-5.206z" fill="#9abe2a"/>
  <path d="M43.58 17.965s.051-.438.15-.438c.124 0 .62-.292.62-.292l.298-.765 2.033-.583.447.583.123.51.496.183.596.876-4.763-.074z" fill="#936126"/>
  <path d="M47.276 16.98l.496.183.595.876-2.38-.037v-1.896l.693-.22.472.584z" fill="#754b1c"/>
  <path d="M64.836 18.545s.02-.24.097-.24c.076 0 .424-.16.424-.16l.212-.419 1.39-.319.308.32.097.279.328.1.405.479-3.262-.04z" fill="#936126"/>
  <path d="M66.476 17.528l.482-.122.31.32.096.28.328.1.405.479-1.62-.02z" fill="#754b1c"/>
  <path d="M73.904 17.109s.023-.294.115-.294.505-.196.505-.196l.253-.513 1.653-.392.367.392.115.342.39.122.484.588-3.882-.05z" fill="#936126"/>
  <path d="M75.856 15.861l.574-.122.367.367.115.342.39.147.506.563-1.952-.025z" fill="#754b1c"/>
  <path d="M41.776 14.48h.574v2.171h-.574z" fill="#402e26"/>
  <path d="M42.072 14.48h.278v2.171h-.278z" fill="#2e211b"/>
  <path d="M42.072 15.153c.908 0 1.669-1.104 1.669-2.449 0-1.344-.742-2.447-1.669-2.447s-1.669 1.103-1.669 2.447c0 1.346.743 2.449 1.67 2.449z" fill="#bee735"/>
  <path d="M42.072 10.257c.928 0 1.669 1.103 1.669 2.447 0 1.346-.742 2.449-1.669 2.449v-4.896z" fill="#9abe2a"/>
  <path d="M9.01 18.289s.023-.275.115-.275.506-.184.506-.184l.251-.483 1.655-.367.367.367.115.322.39.114.482.55-3.881-.044z" fill="#936126"/>
  <path d="M12.019 17.67l.39.137.505.528-1.952-.024v-1.193l.575-.115.367.344z" fill="#754b1c"/>
  <path d="M29.46 12.422h.354v1.268h-.353z" fill="#402e26"/>
  <path d="M29.637 12.422h.177v1.268h-.177z" fill="#2e211b"/>
  <path d="M31.21 12.662h-3.146l1.573-3.123z" fill="#bee735"/>
  <path d="M29.637 12.662V9.54l1.573 3.123z" fill="#9abe2a"/>
  <path d="M31.143 11.301h-3.025l1.52-1.909z" fill="#bee735"/>
  <path d="M29.637 11.301V9.392l1.506 1.91z" fill="#9abe2a"/>
  <path d="M30.735 10.153h-2.21l1.112-1.4z" fill="#bee735"/>
  <path d="M29.637 10.153v-1.4l1.099 1.4z" fill="#9abe2a"/>
  <path d="M61.822 18.56s.045-.281.132-.281c.09-.016.534-.172.534-.172l.267-.47 1.753-.374.4.36.11.328.422.125.51.546-4.128-.062z" fill="#ab7130"/>
  <path d="M65.417 18.06l.51.546-2.063-.03v-1.188l.621-.14.4.36.11.326z" fill="#936126"/>
</svg>
